<?xml version="1.0" encoding="utf-8"?>
<!-- Generator: Adobe Illustrator 23.0.3, SVG Export Plug-In . SVG Version: 6.00 Build 0)  -->
<svg version="1.1" id="Calque_1" xmlns="http://www.w3.org/2000/svg" xmlns:xlink="http://www.w3.org/1999/xlink" x="0px" y="0px"
	 viewBox="0 0 135.4 138.5" style="enable-background:new 0 0 135.4 138.5;" xml:space="preserve">
<style type="text/css">
	.st0{fill:#010101;}
	.st1{fill:#FFFFFF;}
	.st2{fill:none;stroke:#010101;stroke-width:2;stroke-linecap:round;stroke-miterlimit:10;}
	.st3{fill:none;stroke:#000000;stroke-width:3;stroke-miterlimit:10;}
	.st4{fill:none;stroke:#000000;stroke-width:2;stroke-miterlimit:10;}
	.st5{display:none;}
	.st6{display:inline;}
</style>
<g>
	<g>
		<g>
			<path class="st0" d="M21.2,88.6c-3.5,2.9-4.1,8.1-1.2,11.7c3.9,4.7,14.4,5.5,14.8,5.6c0.1,0,0.2,0,0.3-0.1
				c0.1-0.1,0.1-0.2,0.2-0.3c0.1-0.4,1.4-10.9-2.5-15.7C30,86.2,24.7,85.7,21.2,88.6z M29.3,98.6c-2,1.6-4.9,1.3-6.5-0.7
				s-1.3-4.9,0.7-6.5c2-1.6,4.9-1.3,6.5,0.7C31.6,94.1,31.3,97,29.3,98.6z"/>
		</g>
	</g>
</g>
<circle cx="26.4" cy="95" r="7.2"/>
<g>
	<path d="M38.2,123.3c-1.3-0.4-2.4-0.8-3.2-1.4l1.5-3c0.8,0.5,1.7,0.9,2.8,1.2s2.1,0.5,3.2,0.5c2.4,0,3.6-0.6,3.6-1.9
		c0-0.6-0.3-1-0.9-1.2c-0.6-0.2-1.6-0.5-2.9-0.7c-1.4-0.2-2.6-0.5-3.4-0.7c-0.9-0.3-1.7-0.8-2.3-1.5c-0.7-0.7-1-1.7-1-2.9
		c0-1.6,0.7-2.9,2-3.9c1.4-1,3.2-1.5,5.5-1.5c1.2,0,2.3,0.1,3.5,0.4c1.2,0.3,2.1,0.6,2.9,1.1l-1.5,3c-1.5-0.9-3.1-1.3-4.9-1.3
		c-1.2,0-2.1,0.2-2.7,0.5c-0.6,0.4-0.9,0.8-0.9,1.4c0,0.6,0.3,1.1,1,1.4s1.7,0.5,3,0.8c1.4,0.2,2.5,0.5,3.4,0.7
		c0.9,0.3,1.6,0.7,2.3,1.4c0.6,0.7,0.9,1.6,0.9,2.8c0,1.6-0.7,2.9-2.1,3.8s-3.3,1.4-5.7,1.4C40.8,123.8,39.5,123.6,38.2,123.3z"/>
	<path d="M53,103c-0.5-0.5-0.7-1-0.7-1.7c0-0.7,0.2-1.3,0.7-1.7c0.5-0.5,1.1-0.7,1.8-0.7s1.3,0.2,1.8,0.7c0.5,0.4,0.7,1,0.7,1.6
		c0,0.7-0.2,1.3-0.7,1.8c-0.5,0.5-1.1,0.7-1.8,0.7C54.1,103.7,53.5,103.5,53,103z M52.8,106.5h4v17.1h-4V106.5z"/>
	<path d="M78.4,106.5V121c0,6-3.1,9-9.2,9c-1.6,0-3.2-0.2-4.7-0.6c-1.5-0.4-2.7-1-3.6-1.8l1.8-3c0.7,0.6,1.7,1.1,2.8,1.5
		c1.1,0.4,2.3,0.6,3.5,0.6c1.9,0,3.3-0.4,4.1-1.3c0.9-0.9,1.3-2.2,1.3-3.9v-0.9c-0.7,0.7-1.5,1.3-2.5,1.7s-2.1,0.6-3.2,0.6
		c-1.6,0-3.1-0.3-4.4-1c-1.3-0.7-2.3-1.7-3.1-2.9c-0.8-1.3-1.1-2.7-1.1-4.3s0.4-3.1,1.1-4.3c0.8-1.2,1.8-2.2,3.1-2.9
		c1.3-0.7,2.8-1,4.4-1c1.2,0,2.4,0.2,3.4,0.6c1,0.4,1.9,1,2.5,1.9v-2.3H78.4z M73,118.1c1-0.9,1.5-2.1,1.5-3.5
		c0-1.4-0.5-2.6-1.5-3.5s-2.2-1.3-3.7-1.3c-1.5,0-2.8,0.4-3.8,1.3s-1.5,2.1-1.5,3.5c0,1.5,0.5,2.6,1.5,3.5c1,0.9,2.2,1.4,3.8,1.4
		C70.8,119.4,72,119,73,118.1z"/>
	<path d="M94.5,108.3c1.2,1.1,1.8,2.7,1.8,4.9v10.4H94V121c-0.5,0.9-1.3,1.6-2.3,2c-1,0.5-2.2,0.7-3.5,0.7c-1.9,0-3.4-0.4-4.5-1.3
		c-1.1-0.9-1.7-2.1-1.7-3.6c0-1.4,0.5-2.6,1.6-3.5c1-0.9,2.7-1.3,4.9-1.3h5.3v-1c0-1.5-0.4-2.6-1.2-3.3c-0.8-0.8-2-1.1-3.6-1.1
		c-1.1,0-2.1,0.2-3.1,0.5c-1,0.4-1.8,0.8-2.5,1.5l-1-1.7c0.9-0.7,1.9-1.3,3.1-1.7c1.2-0.4,2.5-0.6,3.8-0.6
		C91.6,106.6,93.3,107.2,94.5,108.3z M91.9,121.1c0.9-0.6,1.6-1.4,2-2.5v-2.8h-5.3c-2.9,0-4.3,1-4.3,3c0,1,0.4,1.8,1.1,2.3
		c0.7,0.6,1.8,0.8,3.1,0.8C89.9,122,91,121.7,91.9,121.1z"/>
	<path d="M110.6,122.6c-0.4,0.4-1,0.7-1.6,0.9c-0.6,0.2-1.3,0.3-2,0.3c-1.6,0-2.8-0.4-3.6-1.3c-0.9-0.9-1.3-2.1-1.3-3.6v-10.2h-3
		v-1.9h3v-3.7h2.3v3.7h5.1v1.9h-5.1v10c0,1,0.3,1.8,0.8,2.3c0.5,0.5,1.2,0.8,2.2,0.8c0.5,0,0.9-0.1,1.4-0.2s0.8-0.4,1.1-0.6
		L110.6,122.6z"/>
</g>
<g>
	<path class="st1" d="M31.3,96h-7.5c0.1,0.7,0.5,1.3,1,1.7c0.6,0.4,1.3,0.6,2.1,0.6c1.1,0,1.9-0.3,2.6-1l1.2,1.4
		c-0.4,0.5-1,0.9-1.6,1.2c-0.7,0.3-1.4,0.4-2.2,0.4c-1.1,0-2-0.2-2.8-0.6c-0.8-0.4-1.4-1-1.9-1.8s-0.7-1.6-0.7-2.5
		c0-0.9,0.2-1.8,0.6-2.5c0.4-0.8,1-1.3,1.8-1.8c0.8-0.4,1.6-0.6,2.6-0.6c0.9,0,1.8,0.2,2.5,0.6c0.7,0.4,1.3,1,1.7,1.7
		s0.6,1.6,0.6,2.6C31.3,95.5,31.3,95.8,31.3,96z M24.7,92.9c-0.5,0.4-0.8,1-0.9,1.7h5.5c-0.1-0.7-0.4-1.3-0.9-1.7
		c-0.5-0.4-1.1-0.6-1.8-0.6C25.8,92.2,25.2,92.4,24.7,92.9z"/>
</g>
<path class="st2" d="M60.7,88c-6.4-8.5-10.4-20.3-10.4-33.3c0-13.3,4.2-25.3,10.9-33.8"/>
<path class="st2" d="M79.5,88c4.7-8.5,7.7-20.3,7.7-33.3c0-13.3-3.1-25.3-8-33.8"/>
<line class="st2" x1="35.2" y1="54.4" x2="104.2" y2="54.4"/>
<line class="st2" x1="69.7" y1="19.9" x2="69.7" y2="89"/>
<line class="st2" x1="42.3" y1="74" x2="98.1" y2="74"/>
<line class="st2" x1="40.6" y1="35.7" x2="90.3" y2="35.7"/>
<path class="st3" d="M88.3,25.4 M88.3,25.4c-5.4-3.5-11.8-5.5-18.6-5.5c-19.1,0-34.5,15.5-34.5,34.5C35.2,73.5,50.6,89,69.7,89
	c19.1,0,34.5-15.5,34.5-34.5c0-5-1.1-9.7-2.9-14"/>
<g>
	<g>
		<g>
			<path class="st4" d="M104.2,13.5c-6.4-2.1-13.2,1.4-15.3,7.8c-2.8,8.5,4.6,22.1,4.9,22.7c0.1,0.2,0.2,0.3,0.4,0.3s0.3,0,0.5,0
				c0.6-0.3,14.5-6.9,17.3-15.4C114.1,22.4,110.6,15.6,104.2,13.5z M98.4,31.4c-3.5-1.2-5.5-5-4.3-8.5c1.2-3.5,5-5.5,8.5-4.3
				c3.5,1.2,5.5,5,4.3,8.5S101.9,32.6,98.4,31.4z"/>
		</g>
	</g>
</g>
<g class="st5">
	<g class="st6">
		<g>
			<path class="st4" d="M104.2,13.5c-6.4-2.1-13.2,1.4-15.3,7.8c-2.8,8.5,4.6,22.1,4.9,22.7c0.1,0.2,0.2,0.3,0.4,0.3s0.3,0,0.5,0
				c0.6-0.3,14.5-6.9,17.3-15.4C114.1,22.4,110.6,15.6,104.2,13.5z M98.4,31.4c-3.5-1.2-5.5-5-4.3-8.5c1.2-3.5,5-5.5,8.5-4.3
				c3.5,1.2,5.5,5,4.3,8.5S101.9,32.6,98.4,31.4z"/>
		</g>
	</g>
</g>
</svg>
